<svg width="107" height="40" viewBox="0 0 107 40" fill="none" xmlns="http://www.w3.org/2000/svg" class=""><g clip-path="url(#clip0)"><path d="M16.015 9.83398e-07H90.6704C92.7713 -0.000735861 94.8517 0.412613 96.7928 1.21643C98.7339 2.02024 100.498 3.19877 101.983 4.68465C103.469 6.17053 104.647 7.93465 105.451 9.87619C106.254 11.8177 106.667 13.8986 106.667 16V24C106.667 26.1014 106.254 28.1823 105.451 30.1238C104.647 32.0653 103.469 33.8295 101.983 35.3154C100.498 36.8012 98.7339 37.9798 96.7928 38.7836C94.8517 39.5874 92.7713 40.0007 90.6704 40H0.803571C0.697839 40.0007 0.593013 39.9805 0.495185 39.9403C0.397357 39.9002 0.308478 39.841 0.233713 39.7663C0.158947 39.6915 0.0997862 39.6026 0.059668 39.5047C0.0195498 39.4069 -0.000725658 39.302 1.98353e-05 39.1963V16C0.00596077 11.7551 1.69575 7.68608 4.69838 4.68625C7.70102 1.68642 11.7711 0.000987231 16.015 9.83398e-07Z" fill="#4716B5"></path><path d="M15.174 27.2979C15.2113 27.8587 15.4543 28.083 15.9962 28.1577L15.9401 29.7278C14.8002 29.7278 14.1275 29.5783 13.4361 29.0362C13.4361 29.0362 11.9411 29.7278 10.4087 29.7278C8.54 29.7278 7.60564 28.6998 7.60564 26.7372C7.60564 24.7372 8.6895 24.0643 10.7077 23.896L13.1371 23.6904V23.0175C13.1371 21.9895 12.6886 21.6718 11.7729 21.6718C10.5208 21.6718 8.241 21.8587 8.241 21.8587L8.16625 20.4194C8.16625 20.4194 10.2218 19.9334 11.9411 19.9334C14.2396 19.9334 15.174 20.8867 15.174 23.0362V27.2979ZM10.9507 25.3353C10.091 25.4101 9.66123 25.8213 9.66123 26.6624C9.66123 27.5035 10.0163 28.0269 10.8012 28.0269C11.5944 27.9925 12.3797 27.8543 13.1371 27.6157V25.1297L10.9507 25.3353Z" fill="white"></path><path d="M24.2562 22.0454C24.2562 22.0454 22.0324 21.7464 20.9112 21.7464C19.7899 21.7464 19.2667 22.0081 19.2667 22.7744C19.2667 23.3912 19.6591 23.5595 21.5092 23.8772C23.7703 24.2697 24.5739 24.8305 24.5739 26.7183C24.5739 28.924 23.191 29.709 20.8551 29.709C19.5657 29.709 17.3793 29.2978 17.3793 29.2978L17.454 27.5782C17.454 27.5782 19.7152 27.8772 20.6682 27.8772C22.0137 27.8772 22.5556 27.5969 22.5556 26.7744C22.5556 26.1202 22.238 25.9146 20.3692 25.6155C18.295 25.2791 17.2485 24.8305 17.2485 22.8305C17.2485 20.6997 18.9116 19.9146 20.7617 19.9146C22.1258 19.9146 24.2936 20.3258 24.2936 20.3258L24.2562 22.0454Z" fill="white"></path><path d="M26.5174 29.5035V16.1951H28.573V23.896L29.7316 23.7839L31.9553 20.1203H34.2539L31.5442 24.5129L34.4034 29.5222H32.0862L29.7876 25.5596L28.573 25.6904V29.5222H26.5174V29.5035Z" fill="white"></path><path d="M39.7478 22.9614V29.5221H36.7578V11.1109H43.7468C47.8019 11.1109 49.9697 12.8866 49.9697 16.9614C49.9697 19.5595 48.9232 21.3726 46.961 22.2885L49.9883 29.5221H46.7181L44.0832 22.9614H39.7478ZM43.7468 13.6903H39.7478V20.3819H43.8029C46.064 20.3819 46.9237 18.9053 46.9237 16.9987C46.9237 14.8866 45.8959 13.6903 43.7468 13.6903Z" fill="white"></path><path d="M64.1158 22.7183C64.1158 27.1856 62.7516 29.8024 58.1172 29.8024C53.5201 29.8024 52.1185 27.1669 52.1185 22.7183C52.1185 18.3632 53.6135 15.7837 58.1172 15.7837C62.6208 15.7837 64.1158 18.3632 64.1158 22.7183ZM61.1632 22.7183C61.1632 19.5968 60.4904 18.251 58.1358 18.251C55.7812 18.251 55.1085 19.5968 55.1085 22.7183C55.1085 25.8398 55.6504 27.3351 58.1358 27.3351C60.6212 27.3351 61.1632 25.8211 61.1632 22.7183Z" fill="white"></path><path d="M78.4491 22.6061C78.4491 28.1762 76.7111 29.8024 71.8898 29.8024C70.4696 29.8024 66.9751 29.4846 66.9751 29.4846V11.2043H69.8716V16.5874C69.8716 16.5874 71.7216 15.7837 73.2353 15.7837C76.898 15.7837 78.4491 17.5781 78.4491 22.6061ZM75.4778 22.6061C75.4778 19.5781 74.6929 18.3818 72.8989 18.3818C71.4787 18.3818 69.8903 18.9239 69.8903 18.9239V27.0921C69.8903 27.0921 71.3666 27.2043 71.9085 27.2043C74.8798 27.2043 75.4778 25.8772 75.4778 22.6061Z" fill="white"></path><path d="M81.3456 16.0828H84.2608V29.5221H81.3269V16.0828H81.3456Z" fill="white"></path><path d="M87.8113 29.5034V16.0828H90.7078V16.9052C90.7078 16.9052 92.67 15.7837 94.4079 15.7837C98.1454 15.7837 99.0611 17.9146 99.0611 22.3071V29.5034H96.1645V22.3819C96.1645 19.6903 95.8095 18.3819 93.7726 18.3819C92.7285 18.4162 91.7007 18.651 90.7452 19.0735V29.5034H87.8113Z" fill="white"></path><path d="M82.3358 11.1297H83.3262C83.6731 11.1297 84.0058 11.2676 84.2512 11.5129C84.4965 11.7583 84.6343 12.0911 84.6343 12.4381V13.0923C84.6343 13.4393 84.4965 13.7721 84.2512 14.0175C84.0058 14.2629 83.6731 14.4007 83.3262 14.4007H81.0837C81.0643 14.3994 81.0461 14.3911 81.0323 14.3774C81.0186 14.3636 81.0103 14.3454 81.009 14.326V12.4381C81.0144 12.0896 81.1565 11.7571 81.4047 11.5123C81.6528 11.2676 81.9872 11.1302 82.3358 11.1297Z" fill="white"></path></g><defs><clipPath id="clip0"><rect width="106.667" height="40" fill="white"></rect></clipPath></defs></svg>