<svg xmlns="http://www.w3.org/2000/svg" width="199" height="29" viewBox="0 0 199 29">
    <g fill="#EF5039" fill-rule="evenodd">
        <text font-family="ArialRoundedMTBold, Arial Rounded MT Bold" font-size="20" letter-spacing="3.333">
            <tspan x="61.992" y="21">CASHRUSH</tspan>
        </text>
        <path d="M47.931 5H41a1 1 0 0 1 0-2h8a1 1 0 0 1 1 1c0 4.023-3.248 7.331-7.056 7.91-.445 3.603-3.484 6.466-7 7-.481 3.927-4.023 7.044-7.944 7.09h-4.667a14.437 14.437 0 0 1-8.833 3c-2.471 0-4.798-.618-6.834-1.708l.001-.003a.9.9 0 1 1 .918-1.547A12.636 12.636 0 0 0 14.5 27.2c7.014 0 12.7-5.686 12.7-12.7 0-7.014-5.686-12.7-12.7-12.7-7.014 0-12.7 5.686-12.7 12.7 0 3.493 1.415 6.757 3.878 9.136a.901.901 0 0 1-1.291 1.255A14.457 14.457 0 0 1 0 14.5C0 6.492 6.492 0 14.5 0c3.324 0 6.387 1.119 8.833 3H37a1 1 0 0 1 0 2H25.455a14.48 14.48 0 0 1 2.833 5H42c.137 0 .267.028.386.077 3.129-.415 5.13-2.534 5.545-5.077zM25.455 24H28v.043c3.272-.187 5.48-2.4 5.928-5.043h-5.64a14.48 14.48 0 0 1-2.833 5zm3.33-7H35c.137 0 .267.028.386.077 3.129-.415 5.13-2.534 5.545-5.077H28.785a14.592 14.592 0 0 1 0 5zM13.8 18.847a3.235 3.235 0 0 1-1.067-.385 3.092 3.092 0 0 1-.764-.635 3.764 3.764 0 0 1-.53-.801 4.09 4.09 0 0 1-.33-.947A5.004 5.004 0 0 1 11 15.01c0-.612.092-1.16.276-1.644.184-.484.447-.898.79-1.242a3.454 3.454 0 0 1 1.205-.786c.172-.068.348-.122.529-.164V10.7a.7.7 0 0 1 1.4 0v.39c.453.046.867.161 1.241.346.497.246.877.55 1.141.91.264.362.397.704.397 1.025a.657.657 0 0 1-.193.467.62.62 0 0 1-.466.202c-.204 0-.356-.046-.458-.14-.102-.093-.215-.254-.34-.482-.207-.377-.451-.659-.731-.846-.28-.186-.626-.28-1.037-.28-.653 0-1.173.24-1.56.721-.388.48-.582 1.164-.582 2.05 0 .59.086 1.083.257 1.475.172.393.414.686.729.88.314.193.682.29 1.103.29.457 0 .843-.11 1.16-.33.315-.22.554-.542.714-.967.068-.2.152-.364.252-.49s.26-.19.482-.19c.19 0 .352.064.487.192a.63.63 0 0 1 .204.478c0 .242-.062.504-.185.785a2.832 2.832 0 0 1-.58.83 2.971 2.971 0 0 1-1.013.662 3.445 3.445 0 0 1-1.022.237v.385a.7.7 0 0 1-1.4 0v-.453z"/>
    </g>
</svg>
