<svg width="24" height="24" viewBox="0 0 24 24" fill="none" xmlns="http://www.w3.org/2000/svg">
<g id="fluent:ios-arrow-24-filled">
<g id="Vector">
<path d="M3.68725 11.2731C3.59178 11.1829 3.47947 11.1124 3.35674 11.0656C3.23401 11.0188 3.10327 10.9966 2.97196 11.0003C2.84066 11.004 2.71138 11.0336 2.59149 11.0872C2.47161 11.1409 2.36347 11.2177 2.27325 11.3131C2.18303 11.4086 2.1125 11.5209 2.06569 11.6437C2.01887 11.7664 1.99669 11.8971 2.0004 12.0284C2.00411 12.1597 2.03365 12.289 2.08733 12.4089C2.14101 12.5288 2.21778 12.6369 2.31325 12.7271L11.3132 21.2271C11.4989 21.4027 11.7447 21.5005 12.0002 21.5005C12.2558 21.5005 12.5016 21.4027 12.6872 21.2271L21.6882 12.7271C21.7858 12.6375 21.8646 12.5294 21.92 12.4091C21.9754 12.2888 22.0064 12.1586 22.0111 12.0262C22.0158 11.8938 21.9942 11.7618 21.9474 11.6379C21.9007 11.5139 21.8298 11.4005 21.7388 11.3041C21.6479 11.2078 21.5387 11.1305 21.4176 11.0768C21.2965 11.023 21.166 10.9938 21.0335 10.991C20.9011 10.9881 20.7694 11.0115 20.6461 11.06C20.5228 11.1084 20.4103 11.1809 20.3153 11.2731L12.0002 19.1251L3.68725 11.2731Z" fill="#19191F" fill-opacity="0.8"/>
<path d="M2.21022 12.8362L2.21026 12.8362L11.2102 21.3361C11.2102 21.3362 11.2102 21.3362 11.2103 21.3362C11.4238 21.538 11.7064 21.6505 12.0002 21.6505C12.2941 21.6505 12.5768 21.538 12.7903 21.3361L21.7897 12.8376C21.79 12.8374 21.7902 12.8371 21.7905 12.8369C21.9023 12.734 21.9927 12.6099 22.0563 12.4718C22.12 12.3335 22.1556 12.1838 22.161 12.0315C22.1664 11.8793 22.1415 11.7275 22.0878 11.5849C22.034 11.4424 21.9525 11.3119 21.8479 11.2012C21.7433 11.0904 21.6177 11.0015 21.4785 10.9397C21.3392 10.8779 21.1891 10.8443 21.0368 10.841C20.8845 10.8377 20.733 10.8646 20.5912 10.9204C20.4497 10.9759 20.3207 11.059 20.2115 11.1648C20.2113 11.165 20.211 11.1653 20.2108 11.1655L12.0003 18.9188L3.79027 11.1641C3.79027 11.1641 3.79026 11.1641 3.79025 11.1641C3.68046 11.0604 3.55133 10.9793 3.4102 10.9254C3.26907 10.8716 3.11872 10.8461 2.96772 10.8504C2.81673 10.8546 2.66806 10.8886 2.53019 10.9503C2.39233 11.0121 2.26797 11.1003 2.16423 11.2101C2.06048 11.3199 1.97937 11.4491 1.92554 11.5902C1.8717 11.7313 1.84619 11.8817 1.85046 12.0327C1.85473 12.1837 1.8887 12.3323 1.95043 12.4702C2.01216 12.6081 2.10044 12.7324 2.21022 12.8362Z" stroke="#19191F" stroke-opacity="0.8" stroke-width="0.3"/>
</g>
</g>
</svg>
