<svg width="24" height="24" viewBox="0 0 24 24" fill="none" xmlns="http://www.w3.org/2000/svg">
<g id="fluent:ios-arrow-24-filled">
<g id="Vector">
<path d="M20.3128 12.7269C20.4082 12.8171 20.5205 12.8876 20.6433 12.9344C20.766 12.9812 20.8967 13.0034 21.028 12.9997C21.1593 12.996 21.2886 12.9664 21.4085 12.9128C21.5284 12.8591 21.6365 12.7823 21.7268 12.6869C21.817 12.5914 21.8875 12.4791 21.9343 12.3563C21.9811 12.2336 22.0033 12.1029 21.9996 11.9716C21.9959 11.8403 21.9663 11.711 21.9127 11.5911C21.859 11.4712 21.7822 11.3631 21.6868 11.2729L12.6868 2.77285C12.5011 2.59732 12.2553 2.49951 11.9998 2.49951C11.7442 2.49951 11.4984 2.59732 11.3128 2.77285L2.31175 11.2729C2.21419 11.3625 2.13541 11.4706 2.07998 11.5909C2.02456 11.7112 1.9936 11.8414 1.98889 11.9738C1.98419 12.1062 2.00584 12.2382 2.05258 12.3621C2.09933 12.4861 2.17024 12.5995 2.26119 12.6959C2.35215 12.7922 2.46133 12.8695 2.58241 12.9232C2.70349 12.977 2.83404 13.0062 2.96649 13.009C3.09893 13.0119 3.23063 12.9885 3.35394 12.94C3.47724 12.8916 3.58969 12.8191 3.68475 12.7269L11.9998 4.87485L20.3128 12.7269Z" fill="#19191F" fill-opacity="0.8"/>
<path d="M21.7898 11.1638L21.7897 11.1638L12.7898 2.66386C12.7898 2.66384 12.7898 2.66382 12.7897 2.6638C12.5762 2.46197 12.2936 2.34951 11.9998 2.34951C11.7059 2.34951 11.4232 2.46199 11.2097 2.66386L2.21027 11.1624C2.21002 11.1626 2.20977 11.1629 2.20951 11.1631C2.09767 11.266 2.00733 11.3901 1.94374 11.5282C1.88 11.6665 1.84439 11.8162 1.83899 11.9685C1.83358 12.1207 1.85847 12.2725 1.91223 12.4151C1.96599 12.5576 2.04753 12.6881 2.15213 12.7988C2.25673 12.9096 2.3823 12.9985 2.52153 13.0603C2.66077 13.1221 2.81091 13.1557 2.96322 13.159C3.11554 13.1623 3.26699 13.1354 3.40879 13.0796C3.55026 13.0241 3.67931 12.941 3.78848 12.8352C3.78872 12.835 3.78897 12.8347 3.78922 12.8345L11.9997 5.08118L20.2097 12.8359C20.2097 12.8359 20.2097 12.8359 20.2098 12.8359C20.3195 12.9396 20.4487 13.0207 20.5898 13.0746C20.7309 13.1284 20.8813 13.1539 21.0323 13.1496C21.1833 13.1454 21.3319 13.1114 21.4698 13.0497C21.6077 12.9879 21.732 12.8997 21.8358 12.7899C21.9395 12.6801 22.0206 12.5509 22.0745 12.4098C22.1283 12.2687 22.1538 12.1183 22.1495 11.9673C22.1453 11.8163 22.1113 11.6677 22.0496 11.5298C21.9878 11.3919 21.8996 11.2676 21.7898 11.1638Z" stroke="#19191F" stroke-opacity="0.8" stroke-width="0.3"/>
</g>
</g>
</svg>
