<svg width="17" height="17" viewBox="0 0 17 17" fill="none" xmlns="http://www.w3.org/2000/svg">
<g id="fi-ss-comment-check" clip-path="url(#clip0_0_586)">
<path id="Vector" d="M8.5 0C6.24566 0 4.08365 0.895533 2.48959 2.48959C0.895533 4.08365 0 6.24566 0 8.5C0 10.7543 0.895533 12.9163 2.48959 14.5104C4.08365 16.1045 6.24566 17 8.5 17H17V8.5C16.9976 6.24641 16.1012 4.08582 14.5077 2.49228C12.9142 0.898753 10.7536 0.00243743 8.5 0V0ZM8.43554 11.6301C8.17002 11.8946 7.81051 12.0431 7.43573 12.0431C7.06095 12.0431 6.70144 11.8946 6.43592 11.6301L3.75417 9.00646L4.74583 7.99354L7.43254 10.6193L12.2535 5.8735L13.2451 6.88217L8.43554 11.6301Z" fill="#1C1F24"/>
</g>
<defs>
<clipPath id="clip0_0_586">
<rect width="17" height="17" fill="white"/>
</clipPath>
</defs>
</svg>
