<svg width="114" height="105" viewBox="0 0 114 105" fill="none" xmlns="http://www.w3.org/2000/svg">
<g id="Isolation_Mode" clip-path="url(#clip0_0_223)">
<path id="Vector" d="M55.9082 105.006C84.9048 105.006 108.411 81.4995 108.411 52.5029C108.411 23.5064 84.9048 0 55.9082 0C26.9116 0 3.40527 23.5064 3.40527 52.5029C3.40527 81.4995 26.9116 105.006 55.9082 105.006Z" fill="#F9DA6B"/>
<g id="Group">
<path id="Vector_2" d="M16.7354 40.6506L21.5195 45.4348" stroke="#1C1F24" stroke-opacity="0.6" stroke-width="2.43" stroke-linecap="round" stroke-linejoin="round"/>
<path id="Vector_3" d="M21.5195 40.6506L16.7354 45.4348" stroke="#1C1F24" stroke-opacity="0.6" stroke-width="2.43" stroke-linecap="round" stroke-linejoin="round"/>
</g>
<g id="Group_2">
<path id="Vector_4" d="M88.0656 31.8884L91.81 35.627" stroke="#1C1F24" stroke-opacity="0.6" stroke-width="2.43" stroke-linecap="round" stroke-linejoin="round"/>
<path id="Vector_5" d="M91.81 31.8884L88.0656 35.627" stroke="#1C1F24" stroke-opacity="0.6" stroke-width="2.43" stroke-linecap="round" stroke-linejoin="round"/>
</g>
<g id="Group_3">
<g id="Group_4">
<path id="Vector_6" d="M0.53125 75.4307H15.4153" stroke="#1C1F24" stroke-opacity="0.6" stroke-width="1.82" stroke-linecap="round" stroke-linejoin="round"/>
<path id="Vector_7" d="M100.455 75.4307H113.312" stroke="#1C1F24" stroke-opacity="0.6" stroke-width="1.82" stroke-linecap="round" stroke-linejoin="round"/>
<path id="Vector_8" d="M21.1516 75.4307H97.4408" stroke="#1C1F24" stroke-opacity="0.6" stroke-width="1.82" stroke-linecap="round" stroke-linejoin="round"/>
</g>
<g id="Group_5">
<path id="Vector_9" d="M17.5879 81.7979H29.7731" stroke="#1C1F24" stroke-opacity="0.6" stroke-width="0.91" stroke-linecap="round" stroke-linejoin="round"/>
<path id="Vector_10" d="M37.1973 81.7979H49.3884" stroke="#1C1F24" stroke-opacity="0.6" stroke-width="0.91" stroke-linecap="round" stroke-linejoin="round"/>
<path id="Vector_11" d="M56.3576 81.7979H81.4758" stroke="#1C1F24" stroke-opacity="0.6" stroke-width="0.91" stroke-linecap="round" stroke-linejoin="round"/>
<path id="Vector_12" d="M88.8828 81.7979H103.171" stroke="#1C1F24" stroke-opacity="0.6" stroke-width="0.91" stroke-linecap="round" stroke-linejoin="round"/>
</g>
</g>
<path id="Vector_13" d="M91.8097 50.0846C92.8421 50.0846 93.679 49.2477 93.679 48.2153C93.679 47.183 92.8421 46.3461 91.8097 46.3461C90.7773 46.3461 89.9404 47.183 89.9404 48.2153C89.9404 49.2477 90.7773 50.0846 91.8097 50.0846Z" stroke="#1C1F24" stroke-opacity="0.6" stroke-width="2.43" stroke-linecap="round" stroke-linejoin="round"/>
<path id="Vector_14" d="M41.422 21.111C42.4544 21.111 43.2913 20.2741 43.2913 19.2417C43.2913 18.2093 42.4544 17.3724 41.422 17.3724C40.3896 17.3724 39.5527 18.2093 39.5527 19.2417C39.5527 20.2741 40.3896 21.111 41.422 21.111Z" stroke="#1C1F24" stroke-opacity="0.6" stroke-width="2.43" stroke-linecap="round" stroke-linejoin="round"/>
<path id="Vector_15" d="M84.4903 19.2417C84.4903 20.9065 83.1409 22.2559 81.4761 22.2559C79.8113 22.2559 78.4619 20.9065 78.4619 19.2417C78.4619 17.5769 79.8113 16.2275 81.4761 16.2275C83.1409 16.2275 84.4903 17.5769 84.4903 19.2417Z" stroke="#1C1F24" stroke-opacity="0.6" stroke-width="2.43" stroke-linecap="round" stroke-linejoin="round"/>
<g id="Group_6">
<g id="Group_7">
<path id="Vector_16" d="M56.0625 51.0608L50.7383 45.7366L32.8242 63.6507L38.1484 68.9749L56.0625 51.0608Z" stroke="#1C1F24" stroke-opacity="0.6" stroke-width="3.63" stroke-linecap="round" stroke-linejoin="round"/>
<path id="Vector_17" d="M50.9199 45.5516L59.3141 42.4849L56.2473 50.8732L50.9199 45.5516Z" stroke="#1C1F24" stroke-opacity="0.6" stroke-width="3.63" stroke-linecap="round" stroke-linejoin="round"/>
<path id="Vector_18" d="M37.852 68.6856L33.1143 63.9479L27.4017 69.6604L32.1395 74.3981L37.852 68.6856Z" stroke="#1C1F24" stroke-opacity="0.6" stroke-width="3.63" stroke-linecap="round" stroke-linejoin="round"/>
<path id="Vector_19" d="M53.5831 48.2153L35.4863 66.3121" stroke="#1C1F24" stroke-opacity="0.6" stroke-width="3.63" stroke-linecap="round" stroke-linejoin="round"/>
<path id="Vector_20" d="M31.6084 62.4333L39.36 70.1908" stroke="#1C1F24" stroke-opacity="0.6" stroke-width="3.63" stroke-linecap="round" stroke-linejoin="round"/>
</g>
<path id="Vector_21" d="M37.625 52.5146V29.2014H77.2767V68.859H44.442" stroke="#1C1F24" stroke-opacity="0.6" stroke-width="3.63" stroke-linecap="round" stroke-linejoin="round"/>
</g>
</g>
<defs>
<clipPath id="clip0_0_223">
<rect width="113.838" height="105" fill="white"/>
</clipPath>
</defs>
</svg>
