<svg width="114" height="105" viewBox="0 0 114 105" fill="none" xmlns="http://www.w3.org/2000/svg">
<g id="Isolation_Mode" clip-path="url(#clip0_0_291)">
<path id="Vector" d="M57.4443 105.006C86.4409 105.006 109.947 81.4995 109.947 52.5029C109.947 23.5064 86.4409 0 57.4443 0C28.4478 0 4.94141 23.5064 4.94141 52.5029C4.94141 81.4995 28.4478 105.006 57.4443 105.006Z" fill="#F2E747" fill-opacity="0.6"/>
<g id="Group">
<g id="Group_2">
<path id="Vector_2" d="M0.53125 75.4307H15.4153" stroke="#1C1F24" stroke-opacity="0.6" stroke-width="1.82" stroke-linecap="round" stroke-linejoin="round"/>
<path id="Vector_3" d="M100.455 75.4307H113.312" stroke="#1C1F24" stroke-opacity="0.6" stroke-width="1.82" stroke-linecap="round" stroke-linejoin="round"/>
<path id="Vector_4" d="M21.1516 75.4307H97.4409" stroke="#1C1F24" stroke-opacity="0.6" stroke-width="1.82" stroke-linecap="round" stroke-linejoin="round"/>
</g>
<g id="Group_3">
<path id="Vector_5" d="M17.5879 81.7979H29.7731" stroke="#1C1F24" stroke-opacity="0.6" stroke-width="0.91" stroke-linecap="round" stroke-linejoin="round"/>
<path id="Vector_6" d="M37.1973 81.7979H49.3884" stroke="#1C1F24" stroke-opacity="0.6" stroke-width="0.91" stroke-linecap="round" stroke-linejoin="round"/>
<path id="Vector_7" d="M56.3575 81.7979H81.4758" stroke="#1C1F24" stroke-opacity="0.6" stroke-width="0.91" stroke-linecap="round" stroke-linejoin="round"/>
<path id="Vector_8" d="M88.8827 81.7979H103.171" stroke="#1C1F24" stroke-opacity="0.6" stroke-width="0.91" stroke-linecap="round" stroke-linejoin="round"/>
</g>
</g>
<path id="Vector_9" d="M98.8489 44.9791C98.8489 46.5388 97.5871 47.8006 96.0275 47.8006C94.4678 47.8006 93.2061 46.5388 93.2061 44.9791C93.2061 43.4195 94.4678 42.1577 96.0275 42.1577C97.5871 42.1577 98.8489 43.4195 98.8489 44.9791Z" stroke="#1C1F24" stroke-opacity="0.6" stroke-width="2.43" stroke-linecap="round" stroke-linejoin="round"/>
<path id="Vector_10" d="M58.2688 12.5416C58.2688 14.1013 57.0071 15.3631 55.4474 15.3631C53.8877 15.3631 52.626 14.1013 52.626 12.5416C52.626 10.982 53.8877 9.72021 55.4474 9.72021C57.0071 9.72021 58.2688 10.982 58.2688 12.5416Z" stroke="#1C1F24" stroke-opacity="0.6" stroke-width="2.43" stroke-linecap="round" stroke-linejoin="round"/>
<g id="Group_4">
<g id="Group_5">
<path id="Vector_11" d="M38.9971 42.847V28.9911H56.2936V42.847" stroke="#1C1F24" stroke-opacity="0.6" stroke-width="3.63" stroke-linecap="round" stroke-linejoin="round"/>
<path id="Vector_12" d="M42.1281 42.5608C42.5895 40.7908 44.6866 39.459 47.1984 39.459C49.8446 39.459 52.0293 40.9369 52.3272 42.847" stroke="#1C1F24" stroke-opacity="0.6" stroke-width="3.63" stroke-linecap="round" stroke-linejoin="round"/>
<path id="Vector_13" d="M38.9971 32.8289C41.8535 32.8289 44.1609 31.1115 44.1609 28.9852H38.9971V32.8289Z" stroke="#1C1F24" stroke-opacity="0.6" stroke-width="3.63" stroke-linecap="round" stroke-linejoin="round"/>
<path id="Vector_14" d="M56.2936 32.8289C53.4371 32.8289 51.1298 31.1115 51.1298 28.9852H56.2936V32.8289Z" stroke="#1C1F24" stroke-opacity="0.6" stroke-width="3.63" stroke-linecap="round" stroke-linejoin="round"/>
</g>
<path id="Vector_15" d="M59.08 32.7763V28.9911H76.3765V42.847" stroke="#1C1F24" stroke-opacity="0.6" stroke-width="3.63" stroke-linecap="round" stroke-linejoin="round"/>
<path id="Vector_16" d="M65.8096 39.6167C66.2769 39.5116 66.7676 39.459 67.2758 39.459C69.9219 39.459 72.1066 40.9369 72.4046 42.847" stroke="#1C1F24" stroke-opacity="0.6" stroke-width="3.63" stroke-linecap="round" stroke-linejoin="round"/>
<path id="Vector_17" d="M59.08 32.7062C61.9364 32.7062 64.2438 31.1115 64.2438 28.9911H59.08V32.7062Z" stroke="#1C1F24" stroke-opacity="0.6" stroke-width="3.63" stroke-linecap="round" stroke-linejoin="round"/>
<path id="Vector_18" d="M76.3765 32.8289C73.52 32.8289 71.2126 31.1115 71.2126 28.9852H76.3765V32.8289Z" stroke="#1C1F24" stroke-opacity="0.6" stroke-width="3.63" stroke-linecap="round" stroke-linejoin="round"/>
<path id="Vector_19" d="M56.4338 32.7764H65.6341V42.847" stroke="#1C1F24" stroke-opacity="0.6" stroke-width="3.63" stroke-linecap="round" stroke-linejoin="round"/>
<path id="Vector_20" d="M56.6211 41.0302C57.2695 40.6272 58.1107 40.3818 59.0219 40.3818C60.9438 40.3818 62.5326 41.4567 62.7488 42.8411" stroke="#1C1F24" stroke-opacity="0.6" stroke-width="3.63" stroke-linecap="round" stroke-linejoin="round"/>
<path id="Vector_21" d="M65.6341 35.5686C63.5604 35.5686 61.8781 34.3185 61.8781 32.7764H65.6341V35.5686Z" stroke="#1C1F24" stroke-opacity="0.6" stroke-width="3.63" stroke-linecap="round" stroke-linejoin="round"/>
<path id="Vector_22" d="M80.1559 61.5572V74.2857H36.1348V42.8412H80.1559V53.4726" stroke="#1C1F24" stroke-opacity="0.6" stroke-width="3.63" stroke-linecap="round" stroke-linejoin="round"/>
<path id="Vector_23" d="M83.5261 53.9224H72.6318V61.2242H83.5261V53.9224Z" stroke="#1C1F24" stroke-opacity="0.6" stroke-width="3.63" stroke-linecap="round" stroke-linejoin="round"/>
<path id="Vector_24" d="M78.2579 57.5733C78.2579 58.356 77.6211 58.9986 76.8325 58.9986C76.0439 58.9986 75.4072 58.3619 75.4072 57.5733C75.4072 56.7847 76.0439 56.1479 76.8325 56.1479C77.6211 56.1479 78.2579 56.7847 78.2579 57.5733Z" stroke="#1C1F24" stroke-opacity="0.6" stroke-width="3.63" stroke-linecap="round" stroke-linejoin="round"/>
</g>
<g id="Group_6">
<path id="Vector_25" d="M80.3721 17.8749L86.6808 24.1836" stroke="#1C1F24" stroke-opacity="0.6" stroke-width="2.43" stroke-linecap="round" stroke-linejoin="round"/>
<path id="Vector_26" d="M86.6808 17.8749L80.3721 24.1836" stroke="#1C1F24" stroke-opacity="0.6" stroke-width="2.43" stroke-linecap="round" stroke-linejoin="round"/>
</g>
<g id="Group_7">
<path id="Vector_27" d="M15.8771 36.9589L19.306 40.3819" stroke="#1C1F24" stroke-opacity="0.6" stroke-width="2.43" stroke-linecap="round" stroke-linejoin="round"/>
<path id="Vector_28" d="M19.306 36.9589L15.8771 40.3819" stroke="#1C1F24" stroke-opacity="0.6" stroke-width="2.43" stroke-linecap="round" stroke-linejoin="round"/>
</g>
</g>
<defs>
<clipPath id="clip0_0_291">
<rect width="113.838" height="105" fill="white"/>
</clipPath>
</defs>
</svg>
