<svg width="114" height="105" viewBox="0 0 114 105" fill="none" xmlns="http://www.w3.org/2000/svg">
<g id="Isolation_Mode" clip-path="url(#clip0_0_255)">
<g id="Group">
<path id="Vector" d="M55.5694 105.006C84.5659 105.006 108.072 81.4995 108.072 52.5029C108.072 23.5064 84.5659 0 55.5694 0C26.5728 0 3.06647 23.5064 3.06647 52.5029C3.06647 81.4995 26.5728 105.006 55.5694 105.006Z" fill="#F2E747" fill-opacity="0.6"/>
<g id="Group_2">
<g id="Group_3">
<path id="Vector_2" d="M0.53125 75.4307H15.4153" stroke="#1C1F24" stroke-opacity="0.6" stroke-width="1.82" stroke-linecap="round" stroke-linejoin="round"/>
<path id="Vector_3" d="M100.455 75.4307H113.312" stroke="#1C1F24" stroke-opacity="0.6" stroke-width="1.82" stroke-linecap="round" stroke-linejoin="round"/>
<path id="Vector_4" d="M21.1516 75.4307H97.4408" stroke="#1C1F24" stroke-opacity="0.6" stroke-width="1.82" stroke-linecap="round" stroke-linejoin="round"/>
</g>
<g id="Group_4">
<path id="Vector_5" d="M17.5879 81.7979H29.7731" stroke="#1C1F24" stroke-opacity="0.6" stroke-width="0.91" stroke-linecap="round" stroke-linejoin="round"/>
<path id="Vector_6" d="M37.1973 81.7979H49.3884" stroke="#1C1F24" stroke-opacity="0.6" stroke-width="0.91" stroke-linecap="round" stroke-linejoin="round"/>
<path id="Vector_7" d="M56.3575 81.7979H81.4758" stroke="#1C1F24" stroke-opacity="0.6" stroke-width="0.91" stroke-linecap="round" stroke-linejoin="round"/>
<path id="Vector_8" d="M88.8828 81.7979H103.171" stroke="#1C1F24" stroke-opacity="0.6" stroke-width="0.91" stroke-linecap="round" stroke-linejoin="round"/>
</g>
</g>
</g>
<g id="Group_5">
<path id="Vector_9" d="M67.4453 14.4927L71.8848 18.938" stroke="#1C1F24" stroke-opacity="0.6" stroke-width="2.43" stroke-linecap="round" stroke-linejoin="round"/>
<path id="Vector_10" d="M71.8848 14.4927L67.4453 18.938" stroke="#1C1F24" stroke-opacity="0.6" stroke-width="2.43" stroke-linecap="round" stroke-linejoin="round"/>
</g>
<g id="Group_6">
<path id="Vector_11" d="M86.6289 46.5914L89.2751 49.2376" stroke="#1C1F24" stroke-opacity="0.6" stroke-width="2.43" stroke-linecap="round" stroke-linejoin="round"/>
<path id="Vector_12" d="M89.2751 46.5914L86.6289 49.2376" stroke="#1C1F24" stroke-opacity="0.6" stroke-width="2.43" stroke-linecap="round" stroke-linejoin="round"/>
</g>
<path id="Vector_13" d="M83.6028 31.0239C84.7771 31.0239 85.7291 30.072 85.7291 28.8976C85.7291 27.7233 84.7771 26.7714 83.6028 26.7714C82.4285 26.7714 81.4765 27.7233 81.4765 28.8976C81.4765 30.072 82.4285 31.0239 83.6028 31.0239Z" stroke="#1C1F24" stroke-opacity="0.6" stroke-width="2.43" stroke-linecap="round" stroke-linejoin="round"/>
<path id="Vector_14" d="M26.7777 23.3833C27.952 23.3833 28.9039 22.4313 28.9039 21.257C28.9039 20.0827 27.952 19.1307 26.7777 19.1307C25.6033 19.1307 24.6514 20.0827 24.6514 21.257C24.6514 22.4313 25.6033 23.3833 26.7777 23.3833Z" stroke="#1C1F24" stroke-opacity="0.6" stroke-width="2.43" stroke-linecap="round" stroke-linejoin="round"/>
<path id="Vector_15" d="M16.8759 41.8715C16.8759 42.6776 16.2217 43.3377 15.4097 43.3377C14.5978 43.3377 13.9435 42.6834 13.9435 41.8715C13.9435 41.0595 14.5978 40.4053 15.4097 40.4053C16.2217 40.4053 16.8759 41.0595 16.8759 41.8715Z" stroke="#1C1F24" stroke-opacity="0.6" stroke-width="2.43" stroke-linecap="round" stroke-linejoin="round"/>
<g id="Group_7">
<path id="Vector_16" d="M66.242 39.5583V51.3755C66.242 51.7611 66.2245 52.1408 66.1953 52.5205C66.0726 54.0217 65.7221 55.4529 65.1672 56.7847C63.0467 61.8901 58.0114 65.4885 52.1349 65.4885C51.6267 65.4885 51.0017 65.4009 50.3299 65.2548C47.9232 64.7408 45.8086 63.3856 44.3249 61.4871C43.8108 60.8328 43.3727 60.1143 43.0223 59.3374L38.2615 48.8462L36.1118 44.1088C35.4108 42.7945 35.9074 41.1647 37.2217 40.4696C37.6248 40.2534 38.057 40.1541 38.4834 40.1541C39.4473 40.1541 40.3761 40.674 40.8609 41.5794L41.2815 42.3739L44.0562 47.5844C44.2256 47.9057 44.7163 47.783 44.7163 47.4209V28.9561C44.7163 27.5249 45.7969 26.2865 47.2222 26.1931C48.0401 26.1346 48.7819 26.4442 49.3135 26.9758C49.7983 27.4607 50.1021 28.1383 50.1021 28.8801V37.2977C50.1021 36.0476 51.3054 35.037 52.795 35.037C53.5369 35.037 54.2086 35.2882 54.6993 35.6971C55.1841 36.106 55.4879 36.6726 55.4879 37.2977V38.6003C55.4879 38.2907 55.5638 37.9986 55.6923 37.7299C56.1012 36.9121 57.0592 36.3338 58.175 36.3338C58.9168 36.3338 59.5886 36.5908 60.0793 36.9939C60.5641 37.4028 60.8679 37.9753 60.8679 38.5945V39.5583C60.8679 38.3082 62.0712 37.2918 63.5608 37.2918C64.3026 37.2918 64.9744 37.5488 65.4651 37.9519C65.9499 38.3608 66.2537 38.9274 66.2537 39.5525L66.242 39.5583Z" stroke="#1C1F24" stroke-opacity="0.6" stroke-width="3.63" stroke-linecap="round" stroke-linejoin="round"/>
<path id="Vector_17" d="M66.242 51.3813L66.1953 52.5263C66.2245 52.1524 66.242 51.7669 66.242 51.3813Z" stroke="#1C1F24" stroke-opacity="0.6" stroke-width="3.63" stroke-linecap="round" stroke-linejoin="round"/>
<path id="Vector_18" d="M55.6865 37.7299C55.5522 37.9986 55.4821 38.2907 55.4821 38.6003V37.6774C55.5522 37.6949 55.6164 37.7124 55.6865 37.7299Z" stroke="#1C1F24" stroke-opacity="0.6" stroke-width="3.63" stroke-linecap="round" stroke-linejoin="round"/>
<path id="Vector_19" d="M50.0966 37.2976V44.3658" stroke="#1C1F24" stroke-opacity="0.6" stroke-width="3.63" stroke-linecap="round" stroke-linejoin="round"/>
<path id="Vector_20" d="M55.4821 37.2976V46.5914" stroke="#1C1F24" stroke-opacity="0.6" stroke-width="3.63" stroke-linecap="round" stroke-linejoin="round"/>
<path id="Vector_21" d="M60.862 39.0385V48.3322" stroke="#1C1F24" stroke-opacity="0.6" stroke-width="3.63" stroke-linecap="round" stroke-linejoin="round"/>
<path id="Vector_22" d="M65.2665 56.7848V64.0048C65.2665 69.7878 60.5816 74.4727 54.7986 74.4727C49.0156 74.4727 44.3249 69.7878 44.3249 64.0048V61.4813C45.8145 63.3798 47.9232 64.735 50.3299 65.249C51.0017 65.3951 51.6325 65.4827 52.1349 65.4827C58.0114 65.4827 63.0467 61.8902 65.1672 56.7789H65.2606L65.2665 56.7848Z" stroke="#1C1F24" stroke-opacity="0.6" stroke-width="3.63" stroke-linecap="round" stroke-linejoin="round"/>
</g>
<path id="Vector_23" d="M40.8086 21.2571L43.373 23.8215" stroke="#1C1F24" stroke-opacity="0.6" stroke-width="2.43" stroke-linecap="round" stroke-linejoin="round"/>
<path id="Vector_24" d="M53.3037 21.2571L50.7393 23.8215" stroke="#1C1F24" stroke-opacity="0.6" stroke-width="2.43" stroke-linecap="round" stroke-linejoin="round"/>
<path id="Vector_25" d="M47.3917 18.6985V23.2022" stroke="#1C1F24" stroke-opacity="0.6" stroke-width="2.43" stroke-linecap="round" stroke-linejoin="round"/>
</g>
<defs>
<clipPath id="clip0_0_255">
<rect width="113.838" height="105" fill="white"/>
</clipPath>
</defs>
</svg>
