<svg width="806" height="196" viewBox="0 0 806 196" fill="none" xmlns="http://www.w3.org/2000/svg">
<path d="M320.52 155.38C305.11 155.38 292.31 150.27 282.14 140.04C271.96 129.82 266.88 117.05 266.88 101.73C266.88 86.4098 271.97 73.6498 282.14 63.4198C292.31 53.1998 305.11 48.0798 320.52 48.0798C332.77 48.0798 343.41 51.5098 352.45 58.3798C361.49 65.2498 367.54 74.2598 370.6 85.4198H347.93C345.46 79.9898 341.83 75.7698 337.04 72.7498C332.25 69.7398 326.69 68.2298 320.37 68.2298C310.89 68.2298 303.16 71.3698 297.18 77.6398C291.2 83.9098 288.21 91.9398 288.21 101.72C288.21 111.5 291.2 119.53 297.18 125.8C303.16 132.07 310.89 135.21 320.37 135.21C326.69 135.21 332.25 133.71 337.04 130.69C341.83 127.68 345.46 123.45 347.93 118.02H370.6C367.54 129.19 361.49 138.2 352.45 145.06C343.41 151.93 332.76 155.36 320.52 155.36V155.38Z" fill="#3B4D4F"/>
<path d="M425.43 70.3201C426.81 70.3201 428.39 70.4201 430.17 70.6201V92.4001C428 92.2001 426.27 92.1001 424.98 92.1001C417.47 92.1001 411.42 94.0501 406.83 97.9501C402.24 101.85 399.94 108.3 399.94 117.29V153.59H378.75V72.0901H399.94V86.3201C404.98 75.6501 413.47 70.3201 425.43 70.3201Z" fill="#3B4D4F"/>
<path d="M474.92 70.3201C488.26 70.3201 498.8 74.9101 506.56 84.1001C514.31 93.2901 517.65 104.7 516.56 118.33H454.03C454.72 124.65 456.99 129.5 460.85 132.85C464.7 136.21 469.49 137.89 475.22 137.89C479.37 137.89 483.07 136.98 486.33 135.15C489.59 133.32 491.91 130.83 493.29 127.67H515.22C512.35 136.86 507.32 143.77 500.11 148.42C492.9 153.06 484.65 155.38 475.36 155.38C462.71 155.38 452.39 151.38 444.39 143.38C436.39 135.38 432.39 125.25 432.39 113C432.39 100.75 436.39 90.5801 444.39 82.4701C452.39 74.3701 462.57 70.3201 474.92 70.3201ZM474.77 87.8001C469.73 87.8001 465.53 89.1601 462.17 91.8801C458.81 94.6001 456.44 98.2301 455.06 102.77H494.03C492.84 98.2301 490.57 94.6001 487.21 91.8801C483.85 89.1601 479.7 87.8001 474.76 87.8001H474.77Z" fill="#3B4D4F"/>
<path d="M587.09 39.5H608.28V153.6H587.09V142.63C580.87 151.13 572.32 155.37 561.45 155.37C550.58 155.37 541.91 151.4 534.85 143.44C527.79 135.49 524.25 125.29 524.25 112.84C524.25 100.39 527.78 90.19 534.85 82.24C541.91 74.29 550.73 70.31 561.3 70.31C571.87 70.31 580.76 74.71 587.08 83.5V39.49L587.09 39.5ZM566.2 135.23C572.22 135.23 577.21 133.16 581.17 129.01C585.12 124.86 587.1 119.48 587.1 112.86C587.1 106.24 585.12 100.86 581.17 96.71C577.22 92.56 572.23 90.49 566.2 90.49C560.17 90.49 555.24 92.57 551.38 96.71C547.53 100.86 545.6 106.24 545.6 112.86C545.6 119.48 547.55 124.86 551.45 129.01C555.35 133.16 560.27 135.23 566.19 135.23H566.2Z" fill="#3B4D4F"/>
<path d="M629.92 34.4599C633.77 34.4599 636.93 35.6199 639.4 37.9399C641.87 40.2599 643.11 43.25 643.11 46.9C643.11 50.55 641.87 53.5699 639.4 55.9399C636.93 58.3099 633.77 59.5 629.92 59.5C626.07 59.5 623.03 58.3099 620.51 55.9399C617.99 53.5699 616.73 50.56 616.73 46.9C616.73 43.24 617.99 40.3799 620.51 38.0099C623.03 35.6399 626.16 34.45 629.92 34.45V34.4599ZM619.25 153.6V72.0999H640.44V153.6H619.25Z" fill="#3B4D4F"/>
<path d="M715.12 131.67L718.68 148.86C716.21 150.54 712.68 152.05 708.08 153.38C703.49 154.71 698.92 155.38 694.38 155.38C685.58 155.38 678.3 152.62 672.52 147.08C666.74 141.55 663.85 133.25 663.85 122.19V92.1099H649.33V72.1099H663.85V54.4799L685.04 49.8899V72.1199H715.27V92.1199H685.04V121.02C685.04 130.8 689.39 135.69 698.08 135.69C701.93 135.69 707.61 134.36 715.12 131.69V131.67Z" fill="#3B4D4F"/>
<path d="M732.75 82.4701C740.95 74.3701 750.98 70.3201 762.83 70.3201C774.68 70.3201 784.74 74.3701 792.99 82.4701C801.24 90.5701 805.36 100.7 805.36 112.85C805.36 125 801.29 135.25 793.14 143.3C784.99 151.35 774.89 155.38 762.84 155.38C750.79 155.38 740.84 151.33 732.68 143.23C724.53 135.13 720.46 125 720.46 112.85C720.46 100.7 724.56 90.5701 732.76 82.4701H732.75ZM777.87 96.7001C773.87 92.5501 768.85 90.4801 762.83 90.4801C756.81 90.4801 751.79 92.5601 747.79 96.7001C743.79 100.85 741.79 106.23 741.79 112.85C741.79 119.47 743.79 124.85 747.79 129C751.79 133.15 756.8 135.22 762.83 135.22C768.86 135.22 773.87 133.15 777.87 129C781.87 124.85 783.87 119.47 783.87 112.85C783.87 106.23 781.87 100.85 777.87 96.7001Z" fill="#3B4D4F"/>
<path d="M240.37 0H0V195.36H240.37V0Z" fill="#66CEF5"/>
<path d="M107.05 45.8101H127.26C128.78 45.8101 130.02 47.0501 130.02 48.5701V146.78C130.02 148.3 128.78 149.54 127.26 149.54H111.59C110.07 149.54 108.83 148.3 108.83 146.78V84.3301C108.83 81.5901 105.28 80.5201 103.77 82.8101L80.47 118.06C80.14 118.56 79.58 118.86 78.98 118.86C78.38 118.86 77.82 118.56 77.49 118.05L54.34 82.8501C52.83 80.5601 49.27 81.6301 49.27 84.3701V146.78C49.27 148.3 48.03 149.54 46.51 149.54H30.84C29.32 149.54 28.08 148.3 28.08 146.78V48.5801C28.08 47.0601 29.32 45.8201 30.84 45.8201H50.91C51.83 45.8201 52.69 46.2801 53.2 47.0501L76.75 82.2501C77.84 83.8901 80.25 83.8801 81.34 82.2501L104.75 47.0601C105.26 46.2901 106.12 45.8301 107.05 45.8301V45.8101Z" fill="white"/>
<path d="M209.53 149.54H190.79C189.82 149.54 188.92 149.03 188.42 148.2L170.13 117.8C169.05 116.01 166.45 116.02 165.39 117.82L147.5 148.18C147 149.02 146.1 149.54 145.12 149.54H126.48C124.31 149.54 122.99 147.16 124.14 145.32L154.08 97.2301C154.64 96.3301 154.64 95.1801 154.06 94.2901L125.84 50.0601C124.67 48.2201 125.99 45.8101 128.17 45.8101H146.76C147.73 45.8101 148.63 46.3201 149.13 47.1501L165.97 75.2201C167.04 77.0001 169.62 77.0101 170.7 75.2201L187.68 47.1301C188.18 46.3001 189.08 45.8 190.04 45.8H208.68C210.85 45.8 212.17 48.19 211.02 50.03L182.16 95.88C181.59 96.78 181.59 97.94 182.17 98.84L211.85 145.28C213.02 147.12 211.7 149.53 209.52 149.53L209.53 149.54Z" fill="white"/>
</svg>
