<svg width="807" height="196" viewBox="0 0 807 196" fill="none" xmlns="http://www.w3.org/2000/svg">
<path d="M321.5 155.38C306.09 155.38 293.29 150.27 283.12 140.04C272.94 129.82 267.86 117.05 267.86 101.73C267.86 86.4098 272.95 73.6498 283.12 63.4198C293.29 53.1998 306.09 48.0798 321.5 48.0798C333.75 48.0798 344.39 51.5098 353.43 58.3798C362.47 65.2498 368.52 74.2598 371.58 85.4198H348.91C346.44 79.9898 342.81 75.7698 338.02 72.7498C333.23 69.7398 327.67 68.2298 321.35 68.2298C311.87 68.2298 304.14 71.3698 298.16 77.6398C292.18 83.9098 289.19 91.9398 289.19 101.72C289.19 111.5 292.18 119.53 298.16 125.8C304.14 132.07 311.87 135.21 321.35 135.21C327.67 135.21 333.23 133.71 338.02 130.69C342.81 127.68 346.44 123.45 348.91 118.02H371.58C368.52 129.19 362.47 138.2 353.43 145.06C344.39 151.93 333.74 155.36 321.5 155.36V155.38Z" fill="white"/>
<path d="M426.41 70.3201C427.79 70.3201 429.37 70.4201 431.15 70.6201V92.4001C428.98 92.2001 427.25 92.1001 425.96 92.1001C418.45 92.1001 412.4 94.0501 407.81 97.9501C403.22 101.85 400.92 108.3 400.92 117.29V153.59H379.73V72.0901H400.92V86.3201C405.96 75.6501 414.45 70.3201 426.41 70.3201Z" fill="white"/>
<path d="M475.9 70.3201C489.24 70.3201 499.78 74.9101 507.54 84.1001C515.29 93.2901 518.63 104.7 517.54 118.33H455.01C455.7 124.65 457.97 129.5 461.83 132.85C465.68 136.21 470.47 137.89 476.2 137.89C480.35 137.89 484.05 136.98 487.31 135.15C490.57 133.32 492.89 130.83 494.27 127.67H516.2C513.33 136.86 508.3 143.77 501.09 148.42C493.88 153.06 485.63 155.38 476.34 155.38C463.69 155.38 453.37 151.38 445.37 143.38C437.37 135.38 433.37 125.25 433.37 113C433.37 100.75 437.37 90.5801 445.37 82.4701C453.37 74.3701 463.55 70.3201 475.9 70.3201ZM475.75 87.8001C470.71 87.8001 466.51 89.1601 463.15 91.8801C459.79 94.6001 457.42 98.2301 456.04 102.77H495.01C493.82 98.2301 491.55 94.6001 488.19 91.8801C484.83 89.1601 480.68 87.8001 475.74 87.8001H475.75Z" fill="white"/>
<path d="M588.08 39.5H609.27V153.6H588.08V142.63C581.86 151.13 573.31 155.37 562.44 155.37C551.57 155.37 542.9 151.4 535.84 143.44C528.78 135.49 525.24 125.29 525.24 112.84C525.24 100.39 528.77 90.19 535.84 82.24C542.9 74.29 551.72 70.31 562.29 70.31C572.86 70.31 581.75 74.71 588.07 83.5V39.49L588.08 39.5ZM567.19 135.23C573.21 135.23 578.2 133.16 582.16 129.01C586.11 124.86 588.09 119.48 588.09 112.86C588.09 106.24 586.11 100.86 582.16 96.71C578.21 92.56 573.22 90.49 567.19 90.49C561.16 90.49 556.23 92.57 552.37 96.71C548.52 100.86 546.59 106.24 546.59 112.86C546.59 119.48 548.54 124.86 552.44 129.01C556.34 133.16 561.26 135.23 567.18 135.23H567.19Z" fill="white"/>
<path d="M630.9 34.4599C634.75 34.4599 637.91 35.6199 640.38 37.9399C642.85 40.2599 644.09 43.25 644.09 46.9C644.09 50.55 642.85 53.5699 640.38 55.9399C637.91 58.3099 634.75 59.5 630.9 59.5C627.05 59.5 624.01 58.3099 621.49 55.9399C618.97 53.5699 617.71 50.56 617.71 46.9C617.71 43.24 618.97 40.3799 621.49 38.0099C624.01 35.6399 627.14 34.45 630.9 34.45V34.4599ZM620.23 153.6V72.0999H641.42V153.6H620.23Z" fill="white"/>
<path d="M716.1 131.67L719.66 148.86C717.19 150.54 713.66 152.05 709.06 153.38C704.47 154.71 699.9 155.38 695.36 155.38C686.56 155.38 679.28 152.62 673.5 147.08C667.72 141.55 664.83 133.25 664.83 122.19V92.1099H650.31V72.1099H664.83V54.4799L686.02 49.8899V72.1199H716.25V92.1199H686.02V121.02C686.02 130.8 690.37 135.69 699.06 135.69C702.91 135.69 708.59 134.36 716.1 131.69V131.67Z" fill="white"/>
<path d="M733.74 82.4701C741.94 74.3701 751.97 70.3201 763.82 70.3201C775.67 70.3201 785.73 74.3701 793.98 82.4701C802.23 90.5701 806.35 100.7 806.35 112.85C806.35 125 802.28 135.25 794.13 143.3C785.98 151.35 775.88 155.38 763.83 155.38C751.78 155.38 741.83 151.33 733.67 143.23C725.52 135.13 721.45 125 721.45 112.85C721.45 100.7 725.55 90.5701 733.75 82.4701H733.74ZM778.86 96.7001C774.86 92.5501 769.84 90.4801 763.82 90.4801C757.8 90.4801 752.78 92.5601 748.78 96.7001C744.78 100.85 742.78 106.23 742.78 112.85C742.78 119.47 744.78 124.85 748.78 129C752.78 133.15 757.79 135.22 763.82 135.22C769.85 135.22 774.86 133.15 778.86 129C782.86 124.85 784.86 119.47 784.86 112.85C784.86 106.23 782.86 100.85 778.86 96.7001Z" fill="white"/>
<path d="M241.35 0H0.97998V195.36H241.35V0Z" fill="#66CEF5"/>
<path d="M108.03 45.8101H128.24C129.76 45.8101 131 47.0501 131 48.5701V146.78C131 148.3 129.76 149.54 128.24 149.54H112.57C111.05 149.54 109.81 148.3 109.81 146.78V84.3301C109.81 81.5901 106.26 80.5201 104.75 82.8101L81.45 118.06C81.12 118.56 80.56 118.86 79.96 118.86C79.36 118.86 78.8 118.56 78.47 118.05L55.3199 82.8501C53.8099 80.5601 50.25 81.6301 50.25 84.3701V146.78C50.25 148.3 49.01 149.54 47.49 149.54H31.8199C30.2999 149.54 29.0601 148.3 29.0601 146.78V48.5801C29.0601 47.0601 30.2999 45.8201 31.8199 45.8201H51.89C52.81 45.8201 53.6701 46.2801 54.1801 47.0501L77.73 82.2501C78.82 83.8901 81.2299 83.8801 82.3199 82.2501L105.73 47.0601C106.24 46.2901 107.1 45.8301 108.03 45.8301V45.8101Z" fill="white"/>
<path d="M210.52 149.54H191.78C190.81 149.54 189.91 149.03 189.41 148.2L171.12 117.8C170.04 116.01 167.44 116.02 166.38 117.82L148.49 148.18C147.99 149.02 147.09 149.54 146.11 149.54H127.47C125.3 149.54 123.98 147.16 125.13 145.32L155.07 97.2301C155.63 96.3301 155.63 95.1801 155.05 94.2901L126.83 50.0601C125.66 48.2201 126.98 45.8101 129.16 45.8101H147.75C148.72 45.8101 149.62 46.3201 150.12 47.1501L166.96 75.2201C168.03 77.0001 170.61 77.0101 171.69 75.2201L188.67 47.1301C189.17 46.3001 190.07 45.8 191.03 45.8H209.67C211.84 45.8 213.16 48.19 212.01 50.03L183.15 95.88C182.58 96.78 182.58 97.94 183.16 98.84L212.84 145.28C214.01 147.12 212.69 149.53 210.51 149.53L210.52 149.54Z" fill="white"/>
</svg>
