<svg width="132" height="32" viewBox="0 0 132 32" fill="none" xmlns="http://www.w3.org/2000/svg">
<path d="M52.5012 25.4512C49.9771 25.4512 47.8804 24.6142 46.2146 22.9386C44.5471 21.2645 43.715 19.1728 43.715 16.6634C43.715 14.1539 44.5487 12.0639 46.2146 10.3882C47.8804 8.71414 49.9771 7.87549 52.5012 7.87549C54.5078 7.87549 56.2506 8.43732 57.7314 9.56263C59.2121 10.6879 60.2031 12.1638 60.7043 13.9918H56.991C56.5864 13.1024 55.9918 12.4111 55.2072 11.9164C54.4226 11.4234 53.5119 11.1761 52.4767 11.1761C50.9238 11.1761 49.6576 11.6904 48.6781 12.7174C47.6986 13.7444 47.2088 15.0598 47.2088 16.6617C47.2088 18.2637 47.6986 19.579 48.6781 20.606C49.6576 21.6331 50.9238 22.1474 52.4767 22.1474C53.5119 22.1474 54.4226 21.9017 55.2072 21.407C55.9918 20.914 56.5864 20.2211 56.991 19.3317H60.7043C60.2031 21.1613 59.2121 22.6372 57.7314 23.7608C56.2506 24.8861 54.5061 25.448 52.5012 25.448V25.4512Z" fill="#3B4D4F"/>
<path d="M69.6855 11.5183C69.9115 11.5183 70.1703 11.5347 70.4619 11.5675V15.135C70.1065 15.1023 69.8231 15.0859 69.6118 15.0859C68.3817 15.0859 67.3907 15.4053 66.6388 16.0441C65.887 16.6829 65.5102 17.7394 65.5102 19.212V25.1579H62.0393V11.8082H65.5102V14.1391C66.3358 12.3914 67.7264 11.5183 69.6855 11.5183Z" fill="#3B4D4F"/>
<path d="M77.792 11.5183C79.9771 11.5183 81.7035 12.2702 82.9746 13.7755C84.2441 15.2808 84.7912 17.1498 84.6126 19.3824H74.3702C74.4832 20.4176 74.855 21.212 75.4873 21.7607C76.1179 22.3111 76.9025 22.5863 77.8411 22.5863C78.5209 22.5863 79.1269 22.4372 79.6609 22.1375C80.1949 21.8377 80.5749 21.4299 80.801 20.9122H84.3931C83.923 22.4176 83.0991 23.5494 81.9181 24.3111C80.7371 25.0711 79.3858 25.4512 77.864 25.4512C75.792 25.4512 74.1016 24.796 72.7912 23.4856C71.4808 22.1752 70.8256 20.5159 70.8256 18.5093C70.8256 16.5027 71.4808 14.8369 72.7912 13.5085C74.1016 12.1817 75.769 11.5183 77.792 11.5183ZM77.7674 14.3815C76.9419 14.3815 76.2539 14.6043 75.7035 15.0498C75.1532 15.4954 74.765 16.09 74.5389 16.8336H80.9222C80.7273 16.09 80.3555 15.4954 79.8051 15.0498C79.2547 14.6043 78.5749 14.3815 77.7658 14.3815H77.7674Z" fill="#3B4D4F"/>
<path d="M96.1654 6.4699H99.6364V25.1595H96.1654V23.3626C95.1466 24.7549 93.7461 25.4494 91.9656 25.4494C90.1851 25.4494 88.7649 24.7991 87.6085 23.4953C86.4521 22.1931 85.8722 20.5223 85.8722 18.483C85.8722 16.4437 86.4504 14.7729 87.6085 13.4707C88.7649 12.1685 90.2096 11.5166 91.941 11.5166C93.6724 11.5166 95.1286 12.2373 96.1638 13.6771V6.46826L96.1654 6.4699ZM92.7436 22.1505C93.7297 22.1505 94.5471 21.8114 95.1957 21.1317C95.8427 20.4519 96.1671 19.5706 96.1671 18.4863C96.1671 17.4019 95.8427 16.5207 95.1957 15.8409C94.5487 15.1611 93.7314 14.8221 92.7436 14.8221C91.7559 14.8221 90.9484 15.1628 90.3161 15.8409C89.6855 16.5207 89.3694 17.4019 89.3694 18.4863C89.3694 19.5706 89.6888 20.4519 90.3276 21.1317C90.9664 21.8114 91.7723 22.1505 92.742 22.1505H92.7436Z" fill="#3B4D4F"/>
<path d="M103.181 5.64446C103.812 5.64446 104.329 5.83447 104.734 6.21448C105.138 6.5945 105.341 7.08426 105.341 7.68213C105.341 8.28001 105.138 8.77468 104.734 9.16289C104.329 9.55109 103.812 9.74602 103.181 9.74602C102.55 9.74602 102.052 9.55109 101.64 9.16289C101.227 8.77468 101.02 8.28164 101.02 7.68213C101.02 7.08263 101.227 6.61416 101.64 6.22595C102.052 5.83774 102.565 5.64282 103.181 5.64282V5.64446ZM101.433 25.1596V11.8099H104.904V25.1596H101.433Z" fill="#3B4D4F"/>
<path d="M117.137 21.5675L117.72 24.3832C117.315 24.6584 116.737 24.9057 115.984 25.1236C115.232 25.3414 114.483 25.4512 113.74 25.4512C112.298 25.4512 111.106 24.9991 110.159 24.0916C109.212 23.1858 108.739 21.8263 108.739 20.0146V15.0875H106.36V11.8115H108.739V8.92372L112.21 8.17188V11.8132H117.161V15.0892H112.21V19.823C112.21 21.4249 112.922 22.2259 114.346 22.2259C114.976 22.2259 115.907 22.0081 117.137 21.5707V21.5675Z" fill="#3B4D4F"/>
<path d="M120.025 13.5085C121.368 12.1817 123.011 11.5183 124.952 11.5183C126.893 11.5183 128.541 12.1817 129.892 13.5085C131.243 14.8353 131.918 16.4946 131.918 18.4847C131.918 20.4749 131.251 22.1539 129.916 23.4724C128.581 24.791 126.927 25.4512 124.953 25.4512C122.98 25.4512 121.35 24.7878 120.013 23.461C118.678 22.1342 118.011 20.4749 118.011 18.4847C118.011 16.4946 118.683 14.8353 120.026 13.5085H120.025ZM127.415 15.8394C126.76 15.1596 125.938 14.8205 124.952 14.8205C123.966 14.8205 123.143 15.1612 122.488 15.8394C121.833 16.5191 121.505 17.4004 121.505 18.4847C121.505 19.5691 121.833 20.4503 122.488 21.1301C123.143 21.8099 123.964 22.1489 124.952 22.1489C125.939 22.1489 126.76 21.8099 127.415 21.1301C128.07 20.4503 128.398 19.5691 128.398 18.4847C128.398 17.4004 128.07 16.5191 127.415 15.8394Z" fill="#3B4D4F"/>
<path d="M39.3726 0H0V32H39.3726V0Z" fill="#00ADEF"/>
<path d="M17.5348 7.50366H20.8452C21.0942 7.50366 21.2973 7.70677 21.2973 7.95575V24.0426C21.2973 24.2915 21.0942 24.4947 20.8452 24.4947H18.2785C18.0295 24.4947 17.8264 24.2915 17.8264 24.0426V13.8132C17.8264 13.3644 17.2449 13.1892 16.9975 13.5643L13.181 19.3382C13.1269 19.4201 13.0352 19.4693 12.9369 19.4693C12.8387 19.4693 12.7469 19.4201 12.6929 19.3366L8.90089 13.5708C8.65356 13.1957 8.07043 13.371 8.07043 13.8198V24.0426C8.07043 24.2915 7.86732 24.4947 7.61834 24.4947H5.05159C4.80261 24.4947 4.5995 24.2915 4.5995 24.0426V7.95739C4.5995 7.70841 4.80261 7.5053 5.05159 7.5053H8.33906C8.48976 7.5053 8.63062 7.58065 8.71416 7.70677L12.5717 13.4725C12.7502 13.7412 13.145 13.7395 13.3235 13.4725L17.1581 7.70841C17.2416 7.58229 17.3825 7.50694 17.5348 7.50694V7.50366Z" fill="white"/>
<path d="M34.321 24.4946H31.2514C31.0925 24.4946 30.9451 24.411 30.8632 24.2751L27.8673 19.2956C27.6904 19.0024 27.2645 19.004 27.0909 19.2988L24.1605 24.2718C24.0786 24.4094 23.9312 24.4946 23.7707 24.4946H20.7174C20.362 24.4946 20.1458 24.1047 20.3341 23.8033L25.2383 15.9262C25.33 15.7788 25.33 15.5904 25.235 15.4446L20.6126 8.19974C20.4209 7.89835 20.6372 7.50359 20.9943 7.50359H24.0393C24.1982 7.50359 24.3456 7.58713 24.4275 7.72308L27.1859 12.321C27.3612 12.6125 27.7838 12.6142 27.9607 12.321L30.742 7.71981C30.8239 7.58385 30.9713 7.50195 31.1286 7.50195H34.1818C34.5372 7.50195 34.7535 7.89344 34.5651 8.19483L29.8378 15.7051C29.7445 15.8525 29.7445 16.0425 29.8395 16.1899L34.701 23.7968C34.8927 24.0982 34.6765 24.4929 34.3194 24.4929L34.321 24.4946Z" fill="white"/>
</svg>
