<svg width="16" height="16" viewBox="0 0 16 16" fill="none" xmlns="http://www.w3.org/2000/svg">
<path d="M16 0H0V16H16V0Z" fill="#1689B4"/>
<path d="M7.00153 4.00073H8.53744C8.65296 4.00073 8.74719 4.09497 8.74719 4.21049V11.6742C8.74719 11.7897 8.65296 11.884 8.53744 11.884H7.34655C7.23104 11.884 7.13681 11.7897 7.13681 11.6742V6.92816C7.13681 6.71993 6.86701 6.63861 6.75226 6.81264L4.98151 9.49156C4.95643 9.52956 4.91387 9.55236 4.86827 9.55236C4.82267 9.55236 4.78012 9.52956 4.75504 9.4908L2.99569 6.81568C2.88093 6.64165 2.61039 6.72297 2.61039 6.9312V11.6742C2.61039 11.7897 2.51615 11.884 2.40063 11.884H1.20974C1.09423 11.884 1 11.7897 1 11.6742V4.21125C1 4.09573 1.09423 4.00149 1.20974 4.00149H2.73502C2.80494 4.00149 2.8703 4.03645 2.90906 4.09497L4.6988 6.77009C4.78164 6.89472 4.96479 6.89396 5.04763 6.77009L6.82673 4.09573C6.86549 4.03721 6.93085 4.00225 7.00153 4.00225V4.00073Z" fill="white"/>
<path d="M14.7905 11.884H13.3663C13.2926 11.884 13.2242 11.8452 13.1862 11.7822L11.7962 9.47183C11.7141 9.33579 11.5165 9.33655 11.436 9.47335L10.0764 11.7806C10.0384 11.8445 9.96999 11.884 9.89551 11.884H8.47891C8.314 11.884 8.21368 11.7031 8.30108 11.5633L10.5764 7.90856C10.619 7.84016 10.619 7.75276 10.5749 7.68513L8.43027 4.32375C8.34136 4.18391 8.44168 4.00076 8.60735 4.00076H10.0201C10.0939 4.00076 10.1623 4.03952 10.2003 4.1026L11.4801 6.23585C11.5614 6.37113 11.7574 6.37189 11.8395 6.23585L13.13 4.10108C13.168 4.038 13.2364 4 13.3093 4H14.7259C14.8908 4 14.9912 4.18163 14.9038 4.32147L12.7105 7.80596C12.6671 7.87436 12.6671 7.96252 12.7112 8.03091L14.9668 11.5602C15.0557 11.7001 14.9554 11.8832 14.7898 11.8832L14.7905 11.884Z" fill="white"/>
</svg>
