<svg width="114" height="105" viewBox="0 0 114 105" fill="none" xmlns="http://www.w3.org/2000/svg">
<g clip-path="url(#clip0_0_259)">
<path d="M57.4443 105.006C86.4409 105.006 109.947 81.4995 109.947 52.5029C109.947 23.5064 86.4409 0 57.4443 0C28.4478 0 4.94141 23.5064 4.94141 52.5029C4.94141 81.4995 28.4478 105.006 57.4443 105.006Z" fill="#CEEAF5" fill-opacity="0.6"/>
<path d="M0.53125 75.4307H15.4153" stroke="#00ADEF" stroke-width="1.82" stroke-linecap="round" stroke-linejoin="round"/>
<path d="M100.455 75.4307H113.312" stroke="#00ADEF" stroke-width="1.82" stroke-linecap="round" stroke-linejoin="round"/>
<path d="M21.1516 75.4307H97.4408" stroke="#00ADEF" stroke-width="1.82" stroke-linecap="round" stroke-linejoin="round"/>
<path d="M17.5879 81.7979H29.7731" stroke="#00ADEF" stroke-width="0.91" stroke-linecap="round" stroke-linejoin="round"/>
<path d="M37.1973 81.7979H49.3884" stroke="#00ADEF" stroke-width="0.91" stroke-linecap="round" stroke-linejoin="round"/>
<path d="M56.3576 81.7979H81.4758" stroke="#00ADEF" stroke-width="0.91" stroke-linecap="round" stroke-linejoin="round"/>
<path d="M88.8828 81.7979H103.171" stroke="#00ADEF" stroke-width="0.91" stroke-linecap="round" stroke-linejoin="round"/>
<path d="M41.9942 10.4153L44.8156 13.2426" stroke="#00ADEF" stroke-width="2.43" stroke-linecap="round" stroke-linejoin="round"/>
<path d="M44.8156 10.4153L41.9942 13.2426" stroke="#00ADEF" stroke-width="2.43" stroke-linecap="round" stroke-linejoin="round"/>
<path d="M88.8779 38.6001L93.995 43.7172" stroke="#00ADEF" stroke-width="2.43" stroke-linecap="round" stroke-linejoin="round"/>
<path d="M93.995 38.6001L88.8779 43.7172" stroke="#00ADEF" stroke-width="2.43" stroke-linecap="round" stroke-linejoin="round"/>
<path d="M76.9202 18.1786C76.9202 19.8434 75.5708 21.1928 73.906 21.1928C72.2412 21.1928 70.8918 19.8434 70.8918 18.1786C70.8918 16.5138 72.2412 15.1644 73.906 15.1644C75.5708 15.1644 76.9202 16.5138 76.9202 18.1786Z" stroke="#00ADEF" stroke-width="2.43" stroke-linecap="round" stroke-linejoin="round"/>
<path d="M25.054 43.7174C25.054 44.4768 24.4406 45.0901 23.6812 45.0901C22.9218 45.0901 22.3085 44.4768 22.3085 43.7174C22.3085 42.958 22.9218 42.3446 23.6812 42.3446C24.4406 42.3446 25.054 42.958 25.054 43.7174Z" stroke="#00ADEF" stroke-width="2.43" stroke-linecap="round" stroke-linejoin="round"/>
<path d="M47.345 43.9218C52.4003 43.9218 56.4985 39.8237 56.4985 34.7683C56.4985 29.7129 52.4003 25.6147 47.345 25.6147C42.2896 25.6147 38.1914 29.7129 38.1914 34.7683C38.1914 39.8237 42.2896 43.9218 47.345 43.9218Z" stroke="#00ADEF" stroke-width="3.63" stroke-linecap="round" stroke-linejoin="round"/>
<path d="M62.7434 63.1694V70.0331H31.9414V63.1694C31.9414 55.5113 37.5317 49.1616 44.8452 47.97L44.0332 61.5747L47.3453 64.1741L50.6574 61.5747L49.8454 47.97C53.0991 48.5015 56.0023 50.0495 58.2338 52.2693C61.0143 55.0615 62.7434 58.911 62.7434 63.1636V63.1694Z" stroke="#00ADEF" stroke-width="3.63" stroke-linecap="round" stroke-linejoin="round"/>
<path d="M80.2829 41.2127C81.0885 36.222 77.6958 31.523 72.7051 30.7174C67.7143 29.9118 63.0154 33.3045 62.2097 38.2952C61.4041 43.286 64.7968 47.9849 69.7876 48.7905C74.7783 49.5962 79.4772 46.2035 80.2829 41.2127Z" stroke="#00ADEF" stroke-width="3.63" stroke-linecap="round" stroke-linejoin="round"/>
<path d="M61.2187 56.4634C63.3859 54.454 65.705 53.4492 68.7484 52.9586L67.9364 66.5633L71.2485 69.1627L74.5606 66.5633L73.7486 52.9586C77.0023 53.4901 79.9055 55.0381 82.137 57.2579C84.9175 60.0501 86.6466 63.8996 86.6466 68.1522V75.0159H55.8446V70.4829" stroke="#00ADEF" stroke-width="3.63" stroke-linecap="round" stroke-linejoin="round"/>
</g>
<defs>
<clipPath id="clip0_0_259">
<rect width="113.838" height="105" fill="white"/>
</clipPath>
</defs>
</svg>
