<svg width="114" height="105" viewBox="0 0 114 105" fill="none" xmlns="http://www.w3.org/2000/svg">
<g clip-path="url(#clip0_0_288)">
<path d="M56.9191 105.006C85.9156 105.006 109.422 81.4995 109.422 52.5029C109.422 23.5064 85.9156 0 56.9191 0C27.9225 0 4.41614 23.5064 4.41614 52.5029C4.41614 81.4995 27.9225 105.006 56.9191 105.006Z" fill="#CEEAF5" fill-opacity="0.6"/>
<path d="M86.4943 47.2631L91.2726 52.0473" stroke="#00ADEF" stroke-width="2.43" stroke-linecap="round" stroke-linejoin="round"/>
<path d="M91.2726 47.2631L86.4943 52.0473" stroke="#00ADEF" stroke-width="2.43" stroke-linecap="round" stroke-linejoin="round"/>
<path d="M55.5928 13.5991L58.2448 16.2453" stroke="#00ADEF" stroke-width="2.43" stroke-linecap="round" stroke-linejoin="round"/>
<path d="M58.2448 13.5991L55.5928 16.2453" stroke="#00ADEF" stroke-width="2.43" stroke-linecap="round" stroke-linejoin="round"/>
<path d="M0.53125 75.4307H15.4153" stroke="#00ADEF" stroke-width="1.82" stroke-linecap="round" stroke-linejoin="round"/>
<path d="M100.455 75.4307H113.312" stroke="#00ADEF" stroke-width="1.82" stroke-linecap="round" stroke-linejoin="round"/>
<path d="M21.1516 75.4307H97.4408" stroke="#00ADEF" stroke-width="1.82" stroke-linecap="round" stroke-linejoin="round"/>
<path d="M17.5879 81.7979H29.7731" stroke="#00ADEF" stroke-width="0.91" stroke-linecap="round" stroke-linejoin="round"/>
<path d="M37.1973 81.7979H49.3884" stroke="#00ADEF" stroke-width="0.91" stroke-linecap="round" stroke-linejoin="round"/>
<path d="M56.3575 81.7979H81.4758" stroke="#00ADEF" stroke-width="0.91" stroke-linecap="round" stroke-linejoin="round"/>
<path d="M88.8828 81.7979H103.171" stroke="#00ADEF" stroke-width="0.91" stroke-linecap="round" stroke-linejoin="round"/>
<path d="M33.4251 22.4371C33.4251 23.4711 32.5897 24.3064 31.5558 24.3064C30.5219 24.3064 29.6865 23.4711 29.6865 22.4371C29.6865 21.4032 30.5219 20.5679 31.5558 20.5679C32.5897 20.5679 33.4251 21.4032 33.4251 22.4371Z" stroke="#00ADEF" stroke-width="2.43" stroke-linecap="round" stroke-linejoin="round"/>
<path d="M86.3829 29.6978C86.3829 31.3626 85.0335 32.712 83.3687 32.712C81.7039 32.712 80.3545 31.3626 80.3545 29.6978C80.3545 28.033 81.7039 26.6836 83.3687 26.6836C85.0335 26.6836 86.3829 28.033 86.3829 29.6978Z" stroke="#00ADEF" stroke-width="2.43" stroke-linecap="round" stroke-linejoin="round"/>
<path d="M24.1661 46.0598C24.1661 47.7246 22.8167 49.074 21.1519 49.074C19.4871 49.074 18.1377 47.7246 18.1377 46.0598C18.1377 44.395 19.4871 43.0456 21.1519 43.0456C22.8167 43.0456 24.1661 44.395 24.1661 46.0598Z" stroke="#00ADEF" stroke-width="2.43" stroke-linecap="round" stroke-linejoin="round"/>
<path d="M75.933 39.2779H37.911V74.7004H75.933V39.2779Z" stroke="#00ADEF" stroke-width="3.63" stroke-linecap="round" stroke-linejoin="round"/>
<path d="M45.0721 38.3958C45.0721 31.8534 50.3762 26.5494 56.9186 26.5494C63.461 26.5494 68.765 31.8534 68.765 38.3958" stroke="#00ADEF" stroke-width="3.63" stroke-linecap="round" stroke-linejoin="round"/>
<path d="M50.6161 64.7349L53.4142 53.5485C52.9936 52.8943 52.7483 52.1174 52.7483 51.2879C52.7483 48.9805 54.6175 47.1113 56.9249 47.1113C59.2323 47.1113 61.1015 48.9805 61.1015 51.2879C61.1015 52.1174 60.8562 52.9001 60.4356 53.5485L63.2337 64.7349H50.622H50.6161Z" stroke="#00ADEF" stroke-width="3.63" stroke-linecap="round" stroke-linejoin="round"/>
</g>
<defs>
<clipPath id="clip0_0_288">
<rect width="113.838" height="105" fill="white"/>
</clipPath>
</defs>
</svg>
