<svg width="114" height="105" viewBox="0 0 114 105" fill="none" xmlns="http://www.w3.org/2000/svg">
<g id="Isolation_Mode" clip-path="url(#clip0_0_361)">
<path id="Vector" d="M56.9191 105.006C85.9156 105.006 109.422 81.4995 109.422 52.5029C109.422 23.5064 85.9156 0 56.9191 0C27.9225 0 4.41614 23.5064 4.41614 52.5029C4.41614 81.4995 27.9225 105.006 56.9191 105.006Z" fill="#66CABC" fill-opacity="0.6"/>
<g id="Group">
<path id="Vector_2" d="M86.4943 47.2632L91.2726 52.0473" stroke="#19191F" stroke-opacity="0.6" stroke-width="2.43" stroke-linecap="round" stroke-linejoin="round"/>
<path id="Vector_3" d="M91.2726 47.2632L86.4943 52.0473" stroke="#19191F" stroke-opacity="0.6" stroke-width="2.43" stroke-linecap="round" stroke-linejoin="round"/>
</g>
<g id="Group_2">
<path id="Vector_4" d="M55.5928 13.5991L58.2448 16.2453" stroke="#19191F" stroke-opacity="0.6" stroke-width="2.43" stroke-linecap="round" stroke-linejoin="round"/>
<path id="Vector_5" d="M58.2448 13.5991L55.5928 16.2453" stroke="#19191F" stroke-opacity="0.6" stroke-width="2.43" stroke-linecap="round" stroke-linejoin="round"/>
</g>
<g id="Group_3">
<g id="Group_4">
<path id="Vector_6" d="M0.53125 75.4307H15.4153" stroke="#19191F" stroke-opacity="0.6" stroke-width="1.82" stroke-linecap="round" stroke-linejoin="round"/>
<path id="Vector_7" d="M100.455 75.4307H113.312" stroke="#19191F" stroke-opacity="0.6" stroke-width="1.82" stroke-linecap="round" stroke-linejoin="round"/>
<path id="Vector_8" d="M21.1516 75.4307H97.4408" stroke="#19191F" stroke-opacity="0.6" stroke-width="1.82" stroke-linecap="round" stroke-linejoin="round"/>
</g>
<g id="Group_5">
<path id="Vector_9" d="M17.5879 81.7979H29.7731" stroke="#19191F" stroke-opacity="0.6" stroke-width="0.91" stroke-linecap="round" stroke-linejoin="round"/>
<path id="Vector_10" d="M37.1973 81.7979H49.3884" stroke="#19191F" stroke-opacity="0.6" stroke-width="0.91" stroke-linecap="round" stroke-linejoin="round"/>
<path id="Vector_11" d="M56.3575 81.7979H81.4758" stroke="#19191F" stroke-opacity="0.6" stroke-width="0.91" stroke-linecap="round" stroke-linejoin="round"/>
<path id="Vector_12" d="M88.8828 81.7979H103.171" stroke="#19191F" stroke-opacity="0.6" stroke-width="0.91" stroke-linecap="round" stroke-linejoin="round"/>
</g>
</g>
<path id="Vector_13" d="M33.4251 22.4371C33.4251 23.4711 32.5897 24.3064 31.5558 24.3064C30.5219 24.3064 29.6865 23.4711 29.6865 22.4371C29.6865 21.4032 30.5219 20.5679 31.5558 20.5679C32.5897 20.5679 33.4251 21.4032 33.4251 22.4371Z" stroke="#19191F" stroke-opacity="0.6" stroke-width="2.43" stroke-linecap="round" stroke-linejoin="round"/>
<path id="Vector_14" d="M86.3829 29.6978C86.3829 31.3626 85.0335 32.712 83.3687 32.712C81.7039 32.712 80.3545 31.3626 80.3545 29.6978C80.3545 28.033 81.7039 26.6836 83.3687 26.6836C85.0335 26.6836 86.3829 28.033 86.3829 29.6978Z" stroke="#19191F" stroke-opacity="0.6" stroke-width="2.43" stroke-linecap="round" stroke-linejoin="round"/>
<path id="Vector_15" d="M24.1661 46.0598C24.1661 47.7247 22.8167 49.074 21.1519 49.074C19.4871 49.074 18.1377 47.7247 18.1377 46.0598C18.1377 44.395 19.4871 43.0457 21.1519 43.0457C22.8167 43.0457 24.1661 44.395 24.1661 46.0598Z" stroke="#19191F" stroke-opacity="0.6" stroke-width="2.43" stroke-linecap="round" stroke-linejoin="round"/>
<g id="Group_6">
<path id="Vector_16" d="M75.933 39.2778H37.911V74.7004H75.933V39.2778Z" stroke="#19191F" stroke-opacity="0.6" stroke-width="3.63" stroke-linecap="round" stroke-linejoin="round"/>
<path id="Vector_17" d="M45.0721 38.3958C45.0721 31.8534 50.3762 26.5493 56.9186 26.5493C63.461 26.5493 68.765 31.8534 68.765 38.3958" stroke="#19191F" stroke-opacity="0.6" stroke-width="3.63" stroke-linecap="round" stroke-linejoin="round"/>
<path id="Vector_18" d="M50.6161 64.7348L53.4142 53.5485C52.9936 52.8942 52.7483 52.1173 52.7483 51.2878C52.7483 48.9805 54.6175 47.1112 56.9249 47.1112C59.2323 47.1112 61.1015 48.9805 61.1015 51.2878C61.1015 52.1173 60.8562 52.9001 60.4356 53.5485L63.2337 64.7348H50.622H50.6161Z" stroke="#19191F" stroke-opacity="0.6" stroke-width="3.63" stroke-linecap="round" stroke-linejoin="round"/>
</g>
</g>
<defs>
<clipPath id="clip0_0_361">
<rect width="113.838" height="105" fill="white"/>
</clipPath>
</defs>
</svg>
