<svg width="114" height="105" viewBox="0 0 114 105" fill="none" xmlns="http://www.w3.org/2000/svg">
<g clip-path="url(#clip0_0_316)">
<path d="M53.4668 105.006C82.4633 105.006 105.97 81.4995 105.97 52.5029C105.97 23.5064 82.4633 0 53.4668 0C24.4702 0 0.963867 23.5064 0.963867 52.5029C0.963867 81.4995 24.4702 105.006 53.4668 105.006Z" fill="#CEEAF5" fill-opacity="0.6"/>
<path d="M0.53125 75.4307H15.4153" stroke="#00ADEF" stroke-width="1.82" stroke-linecap="round" stroke-linejoin="round"/>
<path d="M100.455 75.4307H113.312" stroke="#00ADEF" stroke-width="1.82" stroke-linecap="round" stroke-linejoin="round"/>
<path d="M21.1516 75.4307H97.4409" stroke="#00ADEF" stroke-width="1.82" stroke-linecap="round" stroke-linejoin="round"/>
<path d="M17.5879 81.7979H29.7731" stroke="#00ADEF" stroke-width="0.91" stroke-linecap="round" stroke-linejoin="round"/>
<path d="M37.1973 81.7979H49.3884" stroke="#00ADEF" stroke-width="0.91" stroke-linecap="round" stroke-linejoin="round"/>
<path d="M56.3575 81.7979H81.4758" stroke="#00ADEF" stroke-width="0.91" stroke-linecap="round" stroke-linejoin="round"/>
<path d="M88.8827 81.7979H103.171" stroke="#00ADEF" stroke-width="0.91" stroke-linecap="round" stroke-linejoin="round"/>
<path d="M55.4236 13.301C55.4236 14.9658 54.0743 16.3152 52.4095 16.3152C50.7446 16.3152 49.3953 14.9658 49.3953 13.301C49.3953 11.6362 50.7446 10.2868 52.4095 10.2868C54.0743 10.2868 55.4236 11.6362 55.4236 13.301Z" stroke="#00ADEF" stroke-width="2.43" stroke-linecap="round" stroke-linejoin="round"/>
<path d="M19.3586 51.1419C19.3586 52.1174 18.57 52.906 17.5944 52.906C16.6189 52.906 15.8303 52.1174 15.8303 51.1419C15.8303 50.1663 16.6189 49.3777 17.5944 49.3777C18.57 49.3777 19.3586 50.1663 19.3586 51.1419Z" stroke="#00ADEF" stroke-width="2.43" stroke-linecap="round" stroke-linejoin="round"/>
<path d="M76.1727 54.8743C78.2339 42.204 69.6336 30.2618 56.9633 28.2006C44.2931 26.1394 32.3509 34.7397 30.2896 47.4099C28.2284 60.0802 36.8288 72.0224 49.499 74.0836C62.1693 76.1448 74.1115 67.5445 76.1727 54.8743Z" stroke="#00ADEF" stroke-width="3.63" stroke-linecap="round" stroke-linejoin="round"/>
<path d="M68.7595 53.6582C70.1501 45.0822 64.3251 37.0027 55.7491 35.6122C47.1731 34.2216 39.0937 40.0466 37.7031 48.6226C36.3126 57.1986 42.1375 65.2781 50.7135 66.6686C59.2895 68.0592 67.369 62.2342 68.7595 53.6582Z" stroke="#00ADEF" stroke-width="3.63" stroke-linecap="round" stroke-linejoin="round"/>
<path d="M62.1294 52.5767C62.9236 47.6625 59.5836 43.035 54.6695 42.2408C49.7553 41.4466 45.1278 44.7866 44.3336 49.7008C43.5394 54.6149 46.8794 59.2425 51.7935 60.0366C56.7077 60.8308 61.3352 57.4909 62.1294 52.5767Z" stroke="#00ADEF" stroke-width="3.63" stroke-linecap="round" stroke-linejoin="round"/>
<path d="M53.233 51.1419H87.9663" stroke="#00ADEF" stroke-width="3.63" stroke-linecap="round" stroke-linejoin="round"/>
<path d="M79.66 51.1419L83.7549 47.0412" stroke="#00ADEF" stroke-width="3.63" stroke-linecap="round" stroke-linejoin="round"/>
<path d="M79.66 51.1419L83.8075 55.2893" stroke="#00ADEF" stroke-width="3.63" stroke-linecap="round" stroke-linejoin="round"/>
<path d="M84.4559 51.1419L88.5508 47.0412" stroke="#00ADEF" stroke-width="3.63" stroke-linecap="round" stroke-linejoin="round"/>
<path d="M84.4559 51.1419L88.6034 55.2893" stroke="#00ADEF" stroke-width="3.63" stroke-linecap="round" stroke-linejoin="round"/>
<path d="M23.6816 20.8716L28.4658 25.6499" stroke="#00ADEF" stroke-width="2.43" stroke-linecap="round" stroke-linejoin="round"/>
<path d="M28.4658 20.8716L23.6816 25.6499" stroke="#00ADEF" stroke-width="2.43" stroke-linecap="round" stroke-linejoin="round"/>
<path d="M91.833 34.0439L94.5668 36.7777" stroke="#00ADEF" stroke-width="2.43" stroke-linecap="round" stroke-linejoin="round"/>
<path d="M94.5668 34.0439L91.833 36.7777" stroke="#00ADEF" stroke-width="2.43" stroke-linecap="round" stroke-linejoin="round"/>
<path d="M73.001 19.5044L75.7289 22.2382" stroke="#00ADEF" stroke-width="2.43" stroke-linecap="round" stroke-linejoin="round"/>
<path d="M75.7289 19.5044L73.001 22.2382" stroke="#00ADEF" stroke-width="2.43" stroke-linecap="round" stroke-linejoin="round"/>
</g>
<defs>
<clipPath id="clip0_0_316">
<rect width="113.838" height="105" fill="white"/>
</clipPath>
</defs>
</svg>
